<svg width="62" height="62" viewBox="0 0 62 62" fill="none" xmlns="http://www.w3.org/2000/svg">
<path d="M32.8083 39.525L39.525 32.8083C39.9986 32.3347 40.2354 31.7319 40.2354 31C40.2354 30.268 39.9986 29.6653 39.525 29.1917L32.7437 22.4104C32.2701 21.9368 31.6785 21.7103 30.969 21.731C30.2577 21.7534 29.6653 22.0014 29.1917 22.475C28.718 22.9486 28.4812 23.5514 28.4812 24.2833C28.4812 25.0153 28.718 25.618 29.1917 26.0917L31.5167 28.4167H23.1854C22.4535 28.4167 21.8507 28.6638 21.3771 29.1581C20.9035 29.6541 20.6667 30.268 20.6667 31C20.6667 31.7319 20.9147 32.345 21.4107 32.8393C21.9049 33.3353 22.518 33.5833 23.25 33.5833H31.5167L29.1271 35.9729C28.6535 36.4465 28.427 37.039 28.4477 37.7502C28.47 38.4598 28.718 39.0514 29.1917 39.525C29.6653 39.9986 30.268 40.2354 31 40.2354C31.7319 40.2354 32.3347 39.9986 32.8083 39.525ZM31 56.8333C27.4264 56.8333 24.068 56.1548 20.925 54.7977C17.7819 53.4423 15.0479 51.6021 12.7229 49.2771C10.3979 46.9521 8.55771 44.218 7.20232 41.075C5.84521 37.9319 5.16666 34.5736 5.16666 31C5.16666 27.4264 5.84521 24.068 7.20232 20.925C8.55771 17.7819 10.3979 15.0479 12.7229 12.7229C15.0479 10.3979 17.7819 8.55685 20.925 7.19974C24.068 5.84435 27.4264 5.16666 31 5.16666C34.5736 5.16666 37.9319 5.84435 41.075 7.19974C44.218 8.55685 46.9521 10.3979 49.2771 12.7229C51.6021 15.0479 53.4423 17.7819 54.7977 20.925C56.1548 24.068 56.8333 27.4264 56.8333 31C56.8333 34.5736 56.1548 37.9319 54.7977 41.075C53.4423 44.218 51.6021 46.9521 49.2771 49.2771C46.9521 51.6021 44.218 53.4423 41.075 54.7977C37.9319 56.1548 34.5736 56.8333 31 56.8333Z" fill="black"/>
</svg>
