<svg width="42" height="42" viewBox="0 0 42 42" fill="none" xmlns="http://www.w3.org/2000/svg">
<path d="M42 6.5625C42 2.93813 39.0619 0 35.4375 0H6.5625C2.93813 0 0 2.93813 0 6.5625V35.4375C0 39.0619 2.93813 42 6.5625 42H35.4375C39.0619 42 42 39.0619 42 35.4375V6.5625Z" fill="white"/>
<path fill-rule="evenodd" clip-rule="evenodd" d="M31.2768 21.2387C31.2768 20.4941 31.21 19.7782 31.0859 19.0909H21.1968V23.1525H26.8477C26.6043 24.465 25.8645 25.5771 24.7525 26.3216V28.9562H28.1459C30.1313 27.1282 31.2768 24.4364 31.2768 21.2387Z" fill="#4285F4"/>
<path fill-rule="evenodd" clip-rule="evenodd" d="M21.1964 31.5C24.0314 31.5 26.4083 30.5597 28.1455 28.9561L24.7521 26.3215C23.8119 26.9515 22.6092 27.3238 21.1964 27.3238C18.4617 27.3238 16.1469 25.4768 15.3212 22.9949H11.8132V25.7154C13.541 29.147 17.0919 31.5 21.1964 31.5Z" fill="#34A853"/>
<path fill-rule="evenodd" clip-rule="evenodd" d="M15.3216 22.995C15.1116 22.365 14.9922 21.692 14.9922 20.9999C14.9922 20.3079 15.1116 19.6349 15.3216 19.0049V16.2845H11.8136C11.1025 17.702 10.6968 19.3056 10.6968 20.9999C10.6968 22.6943 11.1025 24.2979 11.8136 25.7154L15.3216 22.995Z" fill="#FBBC05"/>
<path fill-rule="evenodd" clip-rule="evenodd" d="M21.1964 14.6761C22.738 14.6761 24.1221 15.2059 25.2103 16.2464L28.2219 13.2348C26.4035 11.5405 24.0267 10.5 21.1964 10.5C17.0919 10.5 13.541 12.853 11.8132 16.2846L15.3212 19.005C16.1469 16.5232 18.4617 14.6761 21.1964 14.6761Z" fill="#EA4335"/>
</svg>
